<svg xmlns="http://www.w3.org/2000/svg" id="Icons" width="18.211" height="18.211" viewBox="0 0 18.211 18.211">
    <defs>
        <style>
            .cls-1{fill:#f1eedb;fill-rule:evenodd}
        </style>
    </defs>
    <g id="Black">
        <path id="Instagram" d="M509.105 160c-2.473 0-2.783.01-3.754.055a6.682 6.682 0 0 0-2.21.423 4.656 4.656 0 0 0-2.663 2.663 6.682 6.682 0 0 0-.423 2.21c-.044.971-.055 1.281-.055 3.754s.01 2.783.055 3.754a6.682 6.682 0 0 0 .423 2.21 4.656 4.656 0 0 0 2.663 2.663 6.683 6.683 0 0 0 2.21.423c.971.044 1.281.055 3.754.055s2.783-.01 3.754-.055a6.683 6.683 0 0 0 2.21-.423 4.656 4.656 0 0 0 2.663-2.663 6.682 6.682 0 0 0 .423-2.21c.044-.971.055-1.281.055-3.754s-.01-2.783-.055-3.754a6.682 6.682 0 0 0-.423-2.21 4.656 4.656 0 0 0-2.663-2.663 6.682 6.682 0 0 0-2.21-.423c-.971-.045-1.281-.055-3.754-.055zm0 1.641c2.431 0 2.719.009 3.679.053a5.038 5.038 0 0 1 1.691.314 3.015 3.015 0 0 1 1.728 1.728 5.037 5.037 0 0 1 .314 1.691c.044.96.053 1.248.053 3.679s-.009 2.719-.053 3.679a5.037 5.037 0 0 1-.314 1.691 3.015 3.015 0 0 1-1.728 1.728 5.038 5.038 0 0 1-1.691.314c-.96.044-1.248.053-3.679.053s-2.719-.009-3.679-.053a5.037 5.037 0 0 1-1.691-.314 3.015 3.015 0 0 1-1.728-1.728 5.037 5.037 0 0 1-.314-1.691c-.044-.96-.053-1.248-.053-3.679s.009-2.719.053-3.679a5.037 5.037 0 0 1 .314-1.691 3.015 3.015 0 0 1 1.728-1.728 5.037 5.037 0 0 1 1.691-.314c.96-.044 1.248-.053 3.679-.053zm0 2.789a4.676 4.676 0 1 0 4.676 4.676 4.676 4.676 0 0 0-4.676-4.676zm0 7.711a3.035 3.035 0 1 1 3.035-3.035 3.035 3.035 0 0 1-3.035 3.035zm5.953-7.9a1.093 1.093 0 1 1-1.093-1.093 1.093 1.093 0 0 1 1.094 1.097z" class="cls-1" transform="translate(-500 -160)"/>
    </g>
</svg>
