<svg xmlns="http://www.w3.org/2000/svg" id="Icons" width="18.211" height="18.211" viewBox="0 0 18.211 18.211">
    <defs>
        <style>
            .cls-1{fill:#f1eedb;fill-rule:evenodd}
        </style>
    </defs>
    <g id="Black">
        <path id="Pinterest" d="M309.106 260a9.105 9.105 0 0 0-3.655 17.445 8.057 8.057 0 0 1 .157-2.091c.176-.739 1.171-4.961 1.171-4.961a3.507 3.507 0 0 1-.29-1.441c0-1.349.783-2.357 1.756-2.357a1.22 1.22 0 0 1 1.228 1.367 19.611 19.611 0 0 1-.8 3.231 1.409 1.409 0 0 0 1.437 1.754c1.725 0 2.887-2.215 2.887-4.841 0-1.995-1.344-3.489-3.788-3.489a4.311 4.311 0 0 0-4.482 4.359 2.626 2.626 0 0 0 .6 1.786.442.442 0 0 1 .131.509c-.043.166-.143.571-.185.73a.313.313 0 0 1-.455.228 3.506 3.506 0 0 1-1.865-3.479c0-2.586 2.181-5.689 6.507-5.689a5.444 5.444 0 0 1 5.765 5.217c0 3.572-1.985 6.241-4.914 6.241a2.613 2.613 0 0 1-2.224-1.134s-.529 2.1-.64 2.5a7.594 7.594 0 0 1-.917 1.95A9.105 9.105 0 1 0 309.106 260" class="cls-1" transform="translate(-300 -260)"/>
    </g>
</svg>
